<svg width="40" height="35" viewBox="0 0 40 35" fill="none" xmlns="http://www.w3.org/2000/svg">
<path fill-rule="evenodd" clip-rule="evenodd" d="M30.5729 3.89999C31.2299 3.89999 31.7579 4.44001 31.7459 5.09601V6.724C31.7579 7.38 31.2299 7.923 30.5729 7.923C29.9169 7.923 29.3859 7.38 29.4029 6.724V5.09601C29.3859 4.44001 29.9169 3.89999 30.5729 3.89999ZM30.5729 9.23801C31.2099 9.23801 31.7319 9.746 31.7459 10.388V12.016C31.7319 12.652 31.2099 13.164 30.5729 13.164C29.9369 13.164 29.4139 12.652 29.4029 12.016V10.388C29.4139 9.746 29.9369 9.23801 30.5729 9.23801ZM30.5729 14.505C31.2239 14.505 31.7459 15.027 31.7459 15.675V17.308C31.7579 17.964 31.2299 18.504 30.5729 18.504C29.9169 18.504 29.3859 17.964 29.4029 17.308V15.675C29.4029 15.027 29.9259 14.505 30.5729 14.505ZM9.83191 16.624C10.4879 16.624 11.0159 17.163 11.0019 17.82V19.447C10.9909 20.089 10.4679 20.595 9.83191 20.595C9.19291 20.595 8.67291 20.089 8.65591 19.447V17.82C8.64491 17.163 9.17591 16.624 9.83191 16.624ZM30.5729 19.797C31.2239 19.797 31.7459 20.319 31.7459 20.967V22.598C31.7319 23.237 31.2099 23.748 30.5729 23.748C29.9369 23.748 29.4139 23.237 29.4029 22.598V20.967C29.4029 20.322 29.9259 19.797 30.5729 19.797ZM9.83191 21.961C10.4679 21.961 10.9909 22.47 11.0019 23.112V24.739C11.0159 25.396 10.4879 25.935 9.83191 25.935C9.17591 25.935 8.64491 25.396 8.65591 24.739V23.112C8.67291 22.47 9.19291 21.961 9.83191 21.961ZM30.5729 25.083C31.2239 25.083 31.7459 25.612 31.7459 26.259V27.89C31.7319 28.526 31.2099 29.035 30.5729 29.035C29.9369 29.035 29.4139 28.526 29.4029 27.89V26.259C29.4029 25.612 29.9259 25.083 30.5729 25.083ZM9.83191 27.202C10.4879 27.202 11.0159 27.742 11.0019 28.398V30.032C11.0019 30.676 10.4769 31.202 9.83191 31.202C9.18391 31.202 8.66191 30.676 8.65591 30.032V28.398C8.64491 27.742 9.17591 27.202 9.83191 27.202ZM30.5729 30.353C31.2299 30.353 31.7579 30.892 31.7459 31.549V33.182C31.7459 33.824 31.2239 34.352 30.5729 34.352C29.9259 34.352 29.4029 33.824 29.4029 33.182V31.549C29.3859 30.892 29.9169 30.353 30.5729 30.353ZM38.8279 0C38.6829 0 38.5379 0.0280007 38.3989 0.0820007L30.4399 3.23801L19.5999 1.52301C20.9669 3.73301 21.2339 6.45699 20.3189 8.89099L26.8859 15.462C28.2269 16.803 28.2269 18.979 26.8859 20.322C26.2159 20.993 25.3349 21.328 24.4549 21.328C23.5739 21.328 22.6969 20.993 22.0229 20.322L15.4559 13.752C14.5069 14.107 13.5079 14.289 12.5019 14.289C12.0019 14.289 11.4969 14.243 10.9989 14.152V14.161C10.9989 14.803 10.4739 15.331 9.82892 15.331C9.18192 15.331 8.65591 14.803 8.65591 14.161V13.357C7.89191 12.959 7.19891 12.451 6.59091 11.846C3.82691 9.08201 3.4069 4.858 5.3269 1.642L0.764923 3.349C0.307923 3.52 0.00390625 3.95701 0.00390625 4.44601V33.83C0.00390625 34.474 0.52892 34.997 1.17392 35C1.31592 35 1.45292 34.974 1.58292 34.923L10.0559 31.762L30.3889 34.983C30.4479 34.994 30.5079 34.997 30.5679 34.997C30.7149 34.997 30.8599 34.969 30.9989 34.915L39.2569 31.645C39.7029 31.466 39.9979 31.037 39.9979 30.554V1.173C39.9979 0.787004 39.8049 0.422987 39.4839 0.204987H39.4899C39.2909 0.0709866 39.0609 0 38.8279 0Z" fill="#664117"/>
<path fill-rule="evenodd" clip-rule="evenodd" d="M19.535 11C19.31 11.294 19.073 11.571 18.817 11.831C18.561 12.088 18.287 12.333 18 12.556L24.045 18.686C24.256 18.894 24.53 18.997 24.803 18.997C25.082 18.997 25.358 18.892 25.572 18.677C25.994 18.249 25.997 17.561 25.583 17.13L19.535 11Z" fill="#664117"/>
<path fill-rule="evenodd" clip-rule="evenodd" d="M12.8014 0.00292969C11.1884 0.00292969 9.60442 0.611932 8.41642 1.76193C6.00442 4.10493 6.00442 7.89793 8.41642 10.2439C9.60442 11.3879 11.1884 11.9969 12.8014 11.9969C13.6004 11.9969 14.4054 11.8469 15.1724 11.5409C17.4884 10.6149 18.9984 8.42794 18.9984 5.99994C18.9984 3.57494 17.4884 1.38795 15.1724 0.458954C14.4054 0.152954 13.6004 0.00292969 12.8014 0.00292969Z" fill="#664117"/>
</svg>
