<svg width="39" height="38" viewBox="0 0 39 38" fill="none" xmlns="http://www.w3.org/2000/svg">
<path fill-rule="evenodd" clip-rule="evenodd" d="M32.44 5.25101C32.734 5.25101 33.025 5.367 33.252 5.604C33.696 6.079 33.696 6.84799 33.252 7.31799L28.679 12.161C28.459 12.398 28.164 12.515 27.874 12.515C27.58 12.515 27.285 12.398 27.061 12.161L24.776 9.74001C24.333 9.27001 24.333 8.5 24.776 8.026C25 7.789 25.291 7.672 25.585 7.672C25.876 7.672 26.17 7.789 26.394 8.026L27.87 9.59L31.631 5.604C31.855 5.367 32.149 5.25101 32.44 5.25101ZM8.017 0C3.596 0 0 3.811 0 8.5C0 13.214 3.635 16.996 7.974 16.996H11.574V10.335C11.574 7.35201 13.862 4.92999 16.673 4.92999H16.685C19.488 4.93399 21.777 7.36401 21.777 10.335V16.996H30.971C35.4 16.996 38.996 13.185 38.996 8.5C39 3.815 35.404 0 30.983 0H8.017Z" fill="#664117"/>
<path fill-rule="evenodd" clip-rule="evenodd" d="M16.5807 7C15.0017 7 13.7157 8.317 13.7157 9.933V25.168H13.6917L10.8587 22.75C10.3437 22.304 9.72072 22.092 9.09672 22.092C8.28172 22.092 7.47072 22.46 6.92372 23.172C6.00072 24.37 6.1807 26.105 7.3267 27.087L13.0727 31.996H29.9967V23.38C29.9967 21.572 28.6827 20.054 26.9447 19.829L19.4527 19.036V9.933C19.4527 8.317 18.1747 7 16.5927 7C16.5887 7 16.5847 7 16.5807 7Z" fill="#664117"/>
<path fill-rule="evenodd" clip-rule="evenodd" d="M14.008 34V36.664H14C14 37.405 14.514 38 15.146 38H28.858C29.486 38 29.996 37.405 29.996 36.664V34H14.008Z" fill="#664117"/>
</svg>
