<svg width="18" height="18" viewBox="0 0 18 18" fill="none" xmlns="http://www.w3.org/2000/svg">
<path d="M2.25 9C2.25 5.81802 2.25 4.97703 3.23851 3.98851C4.22703 3 5.81802 3 9 3C12.182 3 13.773 3 14.7615 3.98851C15.75 4.97703 15.75 5.81802 15.75 9C15.75 12.182 15.75 13.773 14.7615 14.7615C13.773 15.75 12.182 15.75 9 15.75C5.81802 15.75 4.22703 15.75 3.23851 14.7615C2.25 13.773 2.25 12.182 2.25 9Z" stroke="#333333" stroke-width="1.5" stroke-linecap="round" stroke-linejoin="round"/>
<path d="M12.375 3.75V2.25" stroke="#333333" stroke-width="1.5" stroke-linecap="round" stroke-linejoin="round"/>
<path d="M5.625 3.75V2.25" stroke="#333333" stroke-width="1.5" stroke-linecap="round" stroke-linejoin="round"/>
<path d="M2.4375 6H15.5625" stroke="#333333" stroke-width="1.5" stroke-linecap="round" stroke-linejoin="round"/>
</svg>
