<svg width="17" height="17" viewBox="0 0 17 17" fill="none" xmlns="http://www.w3.org/2000/svg">
<g clip-path="url(#clip0_4010_617)">
<path d="M8.12477 0.605469C4.98866 0.605469 2.43726 3.15687 2.43726 6.29295C2.43726 10.1849 7.52702 15.8986 7.74373 16.1399C7.94727 16.3666 8.30264 16.3662 8.50582 16.1399C8.72252 15.8986 13.8123 10.1849 13.8123 6.29295C13.8122 3.15687 11.2609 0.605469 8.12477 0.605469ZM8.12477 9.15448C6.54691 9.15448 5.26327 7.87081 5.26327 6.29295C5.26327 4.7151 6.54694 3.43145 8.12477 3.43145C9.7026 3.43145 10.9862 4.71513 10.9862 6.29298C10.9862 7.87084 9.7026 9.15448 8.12477 9.15448Z" fill="#D7A444"/>
</g>
<defs>
<clipPath id="clip0_4010_617">
<rect width="16" height="16" fill="white" transform="translate(0.124756 0.373047)"/>
</clipPath>
</defs>
</svg>
