<svg width="25" height="25" viewBox="0 0 25 25" fill="none" xmlns="http://www.w3.org/2000/svg">
<g clip-path="url(#clip0_4111_4161)">
<path d="M9.94355 4.09302L10.6001 4.74961C10.765 4.91449 10.765 5.18182 10.6001 5.3467L4.44371 11.5029H23.6025C23.8356 11.5029 24.0247 11.6919 24.0247 11.9251V12.8539C24.0247 13.0871 23.8356 13.2761 23.6025 13.2761H4.44371L10.6001 19.4325C10.765 19.5974 10.765 19.8647 10.6001 20.0296L9.94355 20.6862C9.77867 20.8511 9.51134 20.8511 9.34646 20.6862L1.34832 12.688C1.18344 12.5232 1.18344 12.2558 1.34832 12.091L9.34646 4.09302C9.51135 3.92814 9.77867 3.92814 9.94355 4.09302Z" fill="#222222"/>
</g>
<defs>
<clipPath id="clip0_4111_4161">
<rect width="24" height="24" fill="white" transform="matrix(-1 0 0 1 24.6248 0.389648)"/>
</clipPath>
</defs>
</svg>
