<svg width="17" height="17" viewBox="0 0 17 17" fill="none" xmlns="http://www.w3.org/2000/svg">
<g clip-path="url(#clip0_4010_635)">
<path fill-rule="evenodd" clip-rule="evenodd" d="M8.09896 0.615234C9.54125 0.631693 10.8442 0.986165 12.0079 1.67865C13.1576 2.35731 14.1141 3.31959 14.7857 4.47348C15.474 5.64413 15.8263 6.955 15.8427 8.40607C15.8018 10.3915 15.1756 12.0872 13.9641 13.4933C12.7525 14.8994 11.2008 15.7692 9.59447 16.1027V10.5362H11.1131L11.4566 8.34871H9.15697V6.91595C9.1442 6.61893 9.23813 6.32715 9.42178 6.09335C9.60569 5.85892 9.92953 5.73571 10.3933 5.72371H11.782V3.80751C11.762 3.8011 11.573 3.77575 11.2148 3.73146C10.8085 3.68393 10.4 3.65854 9.99103 3.65541C9.06535 3.65968 8.33325 3.9208 7.79475 4.43876C7.25623 4.95658 6.98114 5.70576 6.96948 6.68629V8.34871H5.21948V10.5362H6.96948V16.1027C4.99714 15.7692 3.44542 14.8994 2.23386 13.4933C1.02229 12.0872 0.396106 10.3915 0.355225 8.40607C0.371581 6.95493 0.72391 5.64407 1.41221 4.47348C2.08386 3.3196 3.0403 2.35731 4.19008 1.67865C5.35369 0.986298 6.65665 0.631826 8.09896 0.615234Z" fill="#D7A444"/>
</g>
<defs>
<clipPath id="clip0_4010_635">
<rect width="16" height="16" fill="white" transform="translate(0.124756 0.373047)"/>
</clipPath>
</defs>
</svg>
