<svg width="17" height="17" viewBox="0 0 17 17" fill="none" xmlns="http://www.w3.org/2000/svg">
<g clip-path="url(#clip0_4010_621)">
<path d="M6.7501 9.74788C5.22292 8.22071 4.8781 6.69354 4.8003 6.08168C4.77856 5.91249 4.83678 5.74283 4.95782 5.62264L6.19368 4.38733C6.37548 4.20565 6.40774 3.9225 6.27147 3.70457L4.30375 0.649124C4.153 0.407813 3.84346 0.320721 3.58899 0.44802L0.430095 1.93574C0.224318 2.03707 0.103283 2.2557 0.126647 2.48388C0.292164 4.0563 0.977681 7.92168 4.7763 11.7206C8.57492 15.5195 12.4398 16.2047 14.013 16.3702C14.2412 16.3936 14.4598 16.2726 14.5611 16.0668L16.0489 12.9079C16.1757 12.654 16.0892 12.3453 15.8489 12.1942L12.7934 10.2271C12.5756 10.0906 12.2925 10.1227 12.1106 10.3043L10.8753 11.5402C10.7551 11.6612 10.5855 11.7194 10.4163 11.6977C9.80444 11.6199 8.27727 11.2751 6.7501 9.74788Z" fill="#D7A444"/>
<path d="M12.8144 8.92494C12.5097 8.92494 12.2627 8.67792 12.2627 8.37322C12.2601 6.08897 10.409 4.23787 8.12472 4.23528C7.82001 4.23528 7.573 3.98827 7.573 3.68356C7.573 3.37885 7.82001 3.13184 8.12472 3.13184C11.0181 3.13503 13.3629 5.4798 13.3661 8.37322C13.3661 8.67792 13.1191 8.92494 12.8144 8.92494Z" fill="#D7A444"/>
<path d="M15.573 8.92477C15.2683 8.92477 15.0213 8.67776 15.0213 8.37305C15.017 4.56595 11.9318 1.48075 8.12472 1.4765C7.82001 1.4765 7.573 1.22948 7.573 0.924771C7.573 0.620062 7.82001 0.373047 8.12472 0.373047C12.541 0.377912 16.1199 3.95679 16.1247 8.37305C16.1247 8.51937 16.0666 8.65971 15.9631 8.76318C15.8597 8.86664 15.7193 8.92477 15.573 8.92477Z" fill="#D7A444"/>
</g>
<defs>
<clipPath id="clip0_4010_621">
<rect width="16" height="16" fill="white" transform="translate(0.124756 0.373047)"/>
</clipPath>
</defs>
</svg>
