<svg width="41" height="41" viewBox="0 0 41 41" fill="none" xmlns="http://www.w3.org/2000/svg">
<circle cx="20.1248" cy="20.8906" r="20" fill="#D7A444"/>
<g clip-path="url(#clip0_4010_508)">
<path d="M22.0226 17.011V15.1158C22.0226 14.8312 22.0351 14.6109 22.0604 14.4552C22.0856 14.2993 22.1431 14.146 22.2322 13.9946C22.3212 13.8433 22.4653 13.7389 22.6643 13.681C22.8636 13.623 23.1285 13.5941 23.4591 13.5941H25.264V9.80371H22.3785C20.7089 9.80371 19.5098 10.2196 18.7809 11.0515C18.0522 11.8835 17.6878 13.1091 17.6878 14.7287V17.011H15.5266V20.8017H17.6877V31.7997H22.0226V20.8017H24.9079L25.2892 17.011H22.0226Z" fill="white"/>
</g>
<defs>
<clipPath id="clip0_4010_508">
<rect width="22.2222" height="23.3333" fill="white" transform="translate(9.29688 9.13477)"/>
</clipPath>
</defs>
</svg>
