<svg width="41" height="41" viewBox="0 0 41 41" fill="none" xmlns="http://www.w3.org/2000/svg">
<circle cx="20.1248" cy="20.8906" r="20" fill="#D7A444"/>
<g clip-path="url(#clip0_4010_530)">
<path d="M20.1248 20.6328C21.4893 20.6328 22.5955 19.5266 22.5955 18.1621C22.5955 16.7976 21.4893 15.6914 20.1248 15.6914C18.7602 15.6914 17.6541 16.7976 17.6541 18.1621C17.6541 19.5266 18.7602 20.6328 20.1248 20.6328Z" fill="white"/>
<path d="M27.5527 14.5459L17.3113 28.1519L20.1252 31.8902L26.7207 23.1279C27.6934 21.8356 28.2659 20.3244 28.3765 18.7577C28.4781 17.3184 28.1927 15.8644 27.5527 14.5459Z" fill="white"/>
<path d="M19.8547 14.4124C19.9439 14.4061 20.0339 14.4026 20.1247 14.4026C21.9309 14.4026 23.4436 15.6831 23.8032 17.3839L26.8421 13.3465C26.2363 12.4925 25.4781 11.7602 24.6045 11.1942C24.0724 10.8494 23.5021 10.5704 22.9048 10.3604L19.8547 14.4124Z" fill="white"/>
<path d="M20.395 21.9121C20.3058 21.9184 20.2159 21.9218 20.1252 21.9218C18.3188 21.9218 16.8061 20.6413 16.4467 18.9404L13.4136 22.97C13.4517 23.0231 13.4902 23.076 13.5297 23.1283L16.5046 27.0806L20.395 21.9121Z" fill="white"/>
<path d="M17.508 15.386L21.5538 10.011C21.0862 9.9314 20.6083 9.89062 20.1244 9.89062C18.5095 9.89062 16.9604 10.3413 15.6445 11.1939C15.0044 11.6087 14.4265 12.1131 13.9246 12.6887L17.508 15.386Z" fill="white"/>
<path d="M16.7331 16.4163L13.1546 13.7227C13.0038 13.9615 12.8643 14.2086 12.7371 14.4634C12.0684 15.8038 11.7697 17.2891 11.8734 18.7586C11.9474 19.8064 12.2282 20.8292 12.6969 21.7785L16.7331 16.4163Z" fill="white"/>
</g>
<defs>
<clipPath id="clip0_4010_530">
<rect width="22" height="22" fill="white" transform="translate(9.12427 9.89062)"/>
</clipPath>
</defs>
</svg>
