<svg width="41" height="41" viewBox="0 0 41 41" fill="none" xmlns="http://www.w3.org/2000/svg">
<circle cx="20.1248" cy="20.8906" r="20" fill="#D7A444"/>
<g clip-path="url(#clip0_4010_513)">
<path d="M29.6074 15.8818C29.5891 15.8818 27.7346 15.847 26.1545 14.7459C24.7758 13.7896 24.3 11.7091 24.2268 10.9383V10.834H20.8716V24.5865C20.8716 26.2382 19.4563 27.5827 17.7177 27.5827C15.979 27.5827 14.5637 26.2382 14.5637 24.5865C14.5637 22.9348 15.979 21.5903 17.7177 21.5903H18.7791V18.4028H17.7177C14.1306 18.4028 11.2085 21.1788 11.2085 24.5865C11.2085 27.9942 14.1306 30.7702 17.7177 30.7702C21.3047 30.7702 24.2268 27.9942 24.2268 24.5865V17.3538C26.6609 19.0171 29.2963 19.0693 29.6013 19.0693V15.8818H29.6074Z" fill="white"/>
</g>
<defs>
<clipPath id="clip0_4010_513">
<rect width="22.2222" height="21.1111" fill="white" transform="translate(9.29688 10.2461)"/>
</clipPath>
</defs>
</svg>
