<svg width="41" height="41" viewBox="0 0 41 41" fill="none" xmlns="http://www.w3.org/2000/svg">
<circle cx="20.1248" cy="20.8906" r="20" fill="#D7A444"/>
<path d="M25.1262 14.1699C27.7259 14.1699 29.0872 14.5279 29.8245 15.4043C30.5649 16.2846 30.6204 17.6327 30.6204 19.5889V23.125C30.6204 25.367 30.2665 26.6619 29.4377 27.4551C28.6296 28.2285 27.3805 28.5439 25.1262 28.5439H15.6897C11.0453 28.5439 10.1956 26.7192 10.1956 23.125V19.5889C10.1956 17.7337 10.1953 16.3931 10.9114 15.4834C11.6459 14.5503 13.0306 14.1699 15.6897 14.1699H25.1262ZM19.0217 18.4512C18.8177 18.3452 18.5729 18.3534 18.3762 18.4727C18.1795 18.5922 18.0588 18.8061 18.0588 19.0361V23.501C18.0589 23.7314 18.1801 23.945 18.3772 24.0645C18.4818 24.1277 18.5997 24.1601 18.718 24.1602C18.8226 24.1602 18.9279 24.135 19.0237 24.085L23.3088 21.8457C23.5264 21.732 23.6625 21.5063 23.6624 21.2607C23.662 21.0152 23.5249 20.79 23.3069 20.6768L19.0217 18.4512Z" fill="white"/>
</svg>
