<svg width="41" height="41" viewBox="0 0 41 41" fill="none" xmlns="http://www.w3.org/2000/svg">
<circle cx="20.1248" cy="20.8906" r="20" fill="#D7A444"/>
<g clip-path="url(#clip0_4010_522)">
<path d="M12.7047 31.4462L12.9267 27.9024C11.2461 26.3073 9.9212 24.0853 9.6435 21.727C8.64135 13.2047 17.9686 7.77458 25.1815 11.5611C31.9578 15.1185 32.6312 24.2168 26.3081 28.6609C23.4609 30.6618 20.3402 30.9404 17.0254 30.1438C16.5838 30.0377 16.235 29.7723 15.7781 29.9307C15.0295 30.1904 14.0779 30.8103 13.3377 31.1718C13.1329 31.2718 12.9114 31.3514 12.7043 31.4462H12.7047ZM13.3303 18.5038C13.9823 18.5821 14.7731 18.4459 15.4405 18.5038C15.4028 18.6231 15.3429 18.7254 15.2742 18.8291C14.5851 19.8661 13.6386 20.8602 12.917 21.8963C12.6722 22.2474 12.3263 22.7914 12.7029 23.1878C13.053 23.5569 13.5783 23.4221 14.0283 23.4433C14.9603 23.4871 16.066 23.547 16.9948 23.4452C17.6342 23.3749 17.7118 22.4822 17.2623 22.2328C16.8527 22.0052 15.3782 22.1678 14.8131 22.1301C14.7327 22.1249 14.6171 22.1183 14.5591 22.0556C14.5461 21.9778 14.7378 21.7256 14.794 21.6464C15.2529 20.9993 17.311 18.6151 17.3853 18.0527C17.4796 17.3414 17.018 17.2278 16.4384 17.1864C15.6327 17.1289 14.4156 17.1312 13.6075 17.184C13.0758 17.2189 12.5566 17.3306 12.662 18.0065C12.714 18.3403 13.0391 18.4685 13.3312 18.5034L13.3303 18.5038ZM22.2284 23.2406C22.4244 23.4216 22.7383 23.4424 22.9728 23.3467C23.264 23.2279 23.3453 22.9587 23.3708 22.6679C23.5115 21.0817 23.2696 19.2906 23.369 17.6827C23.2143 17.1586 22.4532 16.9813 22.1397 17.4654C22.0673 17.5771 22.0399 17.7746 22.0274 17.916C21.8945 19.4485 22.1263 21.1652 22.025 22.7174C22.032 22.8989 22.0942 23.1166 22.2284 23.2406ZM19.0943 18.9875C17.6236 19.1647 17.0366 21.0624 17.6119 22.3007C18.1181 23.39 19.482 23.8911 20.4331 23.0723C20.9054 23.5423 21.6619 23.5437 21.7483 22.7626C21.8267 22.0528 21.8165 20.3752 21.7506 19.654C21.7074 19.184 21.2133 18.8927 20.7874 19.1053C20.6741 19.1619 20.5734 19.3471 20.474 19.3499C20.3987 19.3518 20.0769 19.0968 19.894 19.044C19.6348 18.9695 19.3622 18.9549 19.0943 18.9875ZM25.4476 18.9865C22.8739 19.3202 23.0086 23.8798 26.2584 23.4334C28.7475 23.0917 28.5478 18.5849 25.4476 18.9865Z" fill="white"/>
<path d="M20.1096 22.0649C19.7418 22.4378 19.0146 22.245 18.8182 21.784C18.5094 21.0581 18.8781 19.9372 19.8268 20.2431C20.5155 20.4651 20.5699 21.5988 20.1101 22.0654L20.1096 22.0649Z" fill="white"/>
<path d="M25.5855 20.2087C25.7026 20.187 25.8707 20.1846 25.9882 20.2016C26.9508 20.3421 26.8807 22.5198 25.6315 22.2572C24.7176 22.0654 24.7896 20.3572 25.5855 20.2087Z" fill="white"/>
</g>
<defs>
<clipPath id="clip0_4010_522">
<rect width="21.1111" height="21.1111" fill="white" transform="translate(9.56934 10.335)"/>
</clipPath>
</defs>
</svg>
