<svg width="19" height="19" viewBox="0 0 19 19" fill="none" xmlns="http://www.w3.org/2000/svg">
<g clip-path="url(#clip0_4042_39)">
<path d="M13.7464 12.4358C13.6072 11.4903 13.1338 10.6259 12.4119 9.99959C11.69 9.37325 10.7675 9.02641 9.81183 9.02197H8.92112C7.96541 9.02641 7.04294 9.37325 6.32107 9.99959C5.5992 10.6259 5.12574 11.4903 4.98658 12.4358L4.55965 15.421C4.54601 15.5175 4.55502 15.6159 4.58597 15.7083C4.61692 15.8007 4.66895 15.8846 4.73796 15.9535C4.90538 16.1209 5.93255 16.9748 9.36731 16.9748C12.8021 16.9748 13.8267 16.1242 13.9967 15.9535C14.0657 15.8846 14.1177 15.8007 14.1487 15.7083C14.1796 15.6159 14.1886 15.5175 14.175 15.421L13.7464 12.4358Z" fill="#D7A444"/>
<path d="M5.6485 9.4825C4.83943 10.2284 4.31301 11.2309 4.1584 12.3204L3.84865 14.4635C1.36236 14.4467 0.608942 13.5426 0.483372 13.3584C0.434833 13.2915 0.400195 13.2156 0.381503 13.1351C0.362811 13.0545 0.360445 12.9711 0.374544 12.8896L0.558714 11.8516C0.654668 11.3091 0.880024 10.7977 1.21568 10.3608C1.55133 9.92397 1.98737 9.57448 2.48684 9.34199C2.98631 9.10951 3.53448 9.00089 4.08486 9.02535C4.63525 9.04981 5.17162 9.20663 5.6485 9.4825Z" fill="#D7A444"/>
<path d="M18.3567 12.8896C18.3708 12.9711 18.3684 13.0545 18.3498 13.1351C18.3311 13.2156 18.2964 13.2915 18.2479 13.3584C18.1223 13.5426 17.3689 14.4467 14.8826 14.4635L14.5729 12.3204C14.4182 11.2309 13.8918 10.2284 13.0828 9.4825C13.5596 9.20663 14.096 9.04981 14.6464 9.02535C15.1968 9.00089 15.7449 9.10951 16.2444 9.34199C16.7439 9.57448 17.1799 9.92397 17.5156 10.3608C17.8512 10.7977 18.0766 11.3091 18.1725 11.8516L18.3567 12.8896Z" fill="#D7A444"/>
<path d="M5.79125 7.64081C5.58052 7.93966 5.30078 8.18323 4.97577 8.35084C4.65077 8.51844 4.29011 8.60512 3.92444 8.60351C3.55966 8.60351 3.20011 8.51683 2.8754 8.35061C2.5507 8.18439 2.27015 7.94338 2.05686 7.64746C1.84357 7.35154 1.70366 7.00917 1.64864 6.64857C1.59363 6.28797 1.6251 5.91945 1.74045 5.57339C1.8558 5.22734 2.05174 4.91365 2.31211 4.65817C2.57248 4.40269 2.88984 4.21275 3.23802 4.10398C3.5862 3.99522 3.95525 3.97075 4.31474 4.0326C4.67424 4.09444 5.01389 4.24083 5.30571 4.45969C5.22177 4.78793 5.17958 5.12545 5.18014 5.46425C5.18078 6.23203 5.39216 6.9849 5.79125 7.64081Z" fill="#D7A444"/>
<path d="M17.1089 6.30139C17.1091 6.60377 17.0497 6.90323 16.9341 7.18263C16.8185 7.46204 16.6489 7.71591 16.4351 7.92973C16.2213 8.14354 15.9674 8.31311 15.688 8.42872C15.4086 8.54434 15.1091 8.60373 14.8068 8.60351C14.4411 8.60512 14.0804 8.51844 13.7554 8.35084C13.4304 8.18324 13.1507 7.93966 12.9399 7.64081C13.339 6.9849 13.5504 6.23203 13.551 5.46426C13.5516 5.12545 13.5094 4.78793 13.4255 4.45969C13.7675 4.20317 14.1742 4.04697 14.6 4.00857C15.0258 3.97018 15.4539 4.05111 15.8363 4.24231C16.2187 4.43351 16.5403 4.72741 16.7651 5.09109C16.9898 5.45477 17.1089 5.87386 17.1089 6.30139Z" fill="#D7A444"/>
<path d="M9.36582 8.60347C11.0996 8.60347 12.5051 7.19797 12.5051 5.46421C12.5051 3.73044 11.0996 2.32495 9.36582 2.32495C7.63206 2.32495 6.22656 3.73044 6.22656 5.46421C6.22656 7.19797 7.63206 8.60347 9.36582 8.60347Z" fill="#D7A444"/>
</g>
<defs>
<clipPath id="clip0_4042_39">
<rect width="18" height="18" fill="white" transform="translate(0.365723 0.649902)"/>
</clipPath>
</defs>
</svg>
