<svg width="22" height="21" viewBox="0 0 22 21" fill="none" xmlns="http://www.w3.org/2000/svg">
<g clip-path="url(#clip0_4178_3620)">
<path d="M3.87513 20.5531L4.09111 17.1958C2.45591 15.6847 1.16681 13.5796 0.896615 11.3455C-0.0784503 3.27171 8.99671 -1.87264 16.0147 1.71456C22.6079 5.08473 23.263 13.7042 17.1108 17.9144C14.3406 19.81 11.3042 20.0739 8.07903 19.3192C7.64933 19.2187 7.31 18.9673 6.86539 19.1174C6.13703 19.3634 5.21121 19.9507 4.49098 20.2932C4.29172 20.3878 4.0762 20.4633 3.87468 20.5531H3.87513ZM4.48375 8.29191C5.11813 8.36604 5.88761 8.23699 6.5369 8.29191C6.50031 8.40489 6.44202 8.5018 6.37515 8.60004C5.70462 9.58247 4.78377 10.5243 4.08162 11.5058C3.8435 11.8385 3.50688 12.3538 3.87332 12.7294C4.21401 13.079 4.72504 12.9513 5.16287 12.9714C6.0697 13.0129 7.14553 13.0696 8.0492 12.9732C8.67139 12.9066 8.74684 12.0609 8.30946 11.8246C7.91094 11.6089 6.47636 11.763 5.92647 11.7273C5.8483 11.7224 5.7358 11.7161 5.67932 11.6567C5.66667 11.583 5.85327 11.3441 5.90795 11.2691C6.35436 10.656 8.35691 8.3973 8.4292 7.86456C8.52092 7.1907 8.0718 7.08308 7.5079 7.04379C6.72397 6.98931 5.5397 6.99154 4.7535 7.04155C4.23615 7.0746 3.73099 7.18043 3.83356 7.8208C3.88417 8.13696 4.20045 8.25842 4.48466 8.29147L4.48375 8.29191ZM13.1414 12.7794C13.3321 12.9509 13.6375 12.9705 13.8657 12.8799C14.149 12.7673 14.2281 12.5123 14.2529 12.2368C14.3898 10.7341 14.1544 9.03722 14.2511 7.51401C14.1007 7.01744 13.3601 6.84953 13.0551 7.30815C12.9846 7.41398 12.958 7.60109 12.9458 7.73506C12.8165 9.18682 13.042 10.8132 12.9435 12.2837C12.9503 12.4556 13.0108 12.6619 13.1414 12.7794ZM10.092 8.75008C8.66099 8.91799 8.08987 10.7158 8.6497 11.8889C9.1422 12.9209 10.4692 13.3956 11.3946 12.62C11.8541 13.0652 12.5902 13.0665 12.6742 12.3266C12.7506 11.6541 12.7406 10.0648 12.6765 9.38152C12.6345 8.9363 12.1537 8.66033 11.7394 8.86172C11.6291 8.91531 11.5311 9.09081 11.4344 9.09349C11.3612 9.09527 11.0481 8.85369 10.87 8.80367C10.6179 8.73311 10.3527 8.71927 10.092 8.75008ZM16.2736 8.74919C13.7695 9.06535 13.9005 13.3849 17.0625 12.962C19.4843 12.6383 19.29 8.36872 16.2736 8.74919Z" fill="#D7A444"/>
<path d="M11.0792 11.6658C10.7213 12.019 10.0137 11.8364 9.82262 11.3997C9.52214 10.712 9.8809 9.65004 10.804 9.93985C11.4741 10.1502 11.5269 11.2242 11.0796 11.6662L11.0792 11.6658Z" fill="#D7A444"/>
<path d="M16.4062 9.90742C16.5201 9.88688 16.6837 9.88465 16.798 9.90072C17.7346 10.0338 17.6664 12.0969 16.451 11.8482C15.5617 11.6664 15.6318 10.0481 16.4062 9.90742Z" fill="#D7A444"/>
</g>
<defs>
<clipPath id="clip0_4178_3620">
<rect width="20.5405" height="20" fill="white" transform="translate(0.824219 0.553223)"/>
</clipPath>
</defs>
</svg>
