<svg width="91" height="91" viewBox="0 0 91 91" fill="none" xmlns="http://www.w3.org/2000/svg">
<path d="M45.0352 28.7207C51.7661 28.7207 57.2227 23.2642 57.2227 16.5332C57.2227 9.80223 51.7661 4.3457 45.0352 4.3457C38.3042 4.3457 32.8477 9.80223 32.8477 16.5332C32.8477 23.2642 38.3042 28.7207 45.0352 28.7207Z" fill="white"/>
<path d="M22.5352 19.3457H20.6602V17.4707C20.6602 16.9734 20.4626 16.4965 20.111 16.1449C19.7593 15.7932 19.2824 15.5957 18.7852 15.5957C18.2879 15.5957 17.811 15.7932 17.4593 16.1449C17.1077 16.4965 16.9102 16.9734 16.9102 17.4707V19.3457H15.0352C14.5379 19.3457 14.061 19.5432 13.7093 19.8949C13.3577 20.2465 13.1602 20.7234 13.1602 21.2207C13.1602 21.718 13.3577 22.1949 13.7093 22.5465C14.061 22.8982 14.5379 23.0957 15.0352 23.0957H16.9102V24.9707C16.9102 25.468 17.1077 25.9449 17.4593 26.2965C17.811 26.6482 18.2879 26.8457 18.7852 26.8457C19.2824 26.8457 19.7593 26.6482 20.111 26.2965C20.4626 25.9449 20.6602 25.468 20.6602 24.9707V23.0957H22.5352C23.0324 23.0957 23.5093 22.8982 23.861 22.5465C24.2126 22.1949 24.4102 21.718 24.4102 21.2207C24.4102 20.7234 24.2126 20.2465 23.861 19.8949C23.5093 19.5432 23.0324 19.3457 22.5352 19.3457Z" fill="white"/>
<path d="M80.6602 34.3457H78.7852V32.4707C78.7852 31.9734 78.5876 31.4965 78.236 31.1449C77.8844 30.7932 77.4074 30.5957 76.9102 30.5957C76.4129 30.5957 75.936 30.7932 75.5843 31.1449C75.2327 31.4965 75.0352 31.9734 75.0352 32.4707V34.3457H73.1602C72.6629 34.3457 72.186 34.5432 71.8343 34.8949C71.4827 35.2465 71.2852 35.7234 71.2852 36.2207C71.2852 36.718 71.4827 37.1949 71.8343 37.5465C72.186 37.8982 72.6629 38.0957 73.1602 38.0957H75.0352V39.9707C75.0352 40.468 75.2327 40.9449 75.5843 41.2965C75.936 41.6482 76.4129 41.8457 76.9102 41.8457C77.4074 41.8457 77.8844 41.6482 78.236 41.2965C78.5876 40.9449 78.7852 40.468 78.7852 39.9707V38.0957H80.6602C81.1574 38.0957 81.6344 37.8982 81.986 37.5465C82.3376 37.1949 82.5352 36.718 82.5352 36.2207C82.5352 35.7234 82.3376 35.2465 81.986 34.8949C81.6344 34.5432 81.1574 34.3457 80.6602 34.3457Z" fill="white"/>
<path d="M71.2852 21.2207C72.3207 21.2207 73.1602 20.3812 73.1602 19.3457C73.1602 18.3102 72.3207 17.4707 71.2852 17.4707C70.2496 17.4707 69.4102 18.3102 69.4102 19.3457C69.4102 20.3812 70.2496 21.2207 71.2852 21.2207Z" fill="white"/>
<path d="M9.41016 38.0957C10.4457 38.0957 11.2852 37.2562 11.2852 36.2207C11.2852 35.1852 10.4457 34.3457 9.41016 34.3457C8.37462 34.3457 7.53516 35.1852 7.53516 36.2207C7.53516 37.2562 8.37462 38.0957 9.41016 38.0957Z" fill="white"/>
<path d="M79.6137 54.1739L68.0056 45.8901L62.0056 33.9033C61.2304 32.3426 60.0338 31.03 58.5513 30.1141C57.0687 29.1982 55.3595 28.7156 53.6169 28.7208H36.4531C34.7099 28.7149 32.9998 29.1972 31.5165 30.1131C30.0333 31.0291 28.8361 32.342 28.0606 33.9033L22.0606 45.8901L10.4712 54.1626C9.10977 55.1091 8.14336 56.5227 7.75553 58.1349C7.3677 59.747 7.58547 61.4455 8.36747 62.9076C9.152 64.2568 10.3908 65.283 11.8625 65.8026C12.0037 64.07 12.5433 62.3933 13.4393 60.9036C14.3353 59.4139 15.5633 58.1513 17.0277 57.2144C18.492 56.2775 20.153 55.6916 21.8811 55.5024C23.6092 55.3133 25.3576 55.526 26.99 56.1239L29.1968 56.9283L31.0212 55.6158C31.3365 55.3929 31.6308 55.1419 31.9006 54.8658V57.9051L41.8212 61.5164L45.035 62.692L56.7369 58.4339L58.1693 57.9108V54.8733C58.4379 55.1485 58.7303 55.3995 59.0431 55.6233L60.8731 56.9358L63.0856 56.1295C64.7192 55.5296 66.4696 55.3161 68.1995 55.5057C69.9294 55.6953 71.592 56.2828 73.0569 57.2223C74.5218 58.1618 75.7493 59.4277 76.6432 60.9209C77.5371 62.4141 78.0732 64.0939 78.2094 65.8289C79.7495 65.2814 81.0299 64.1788 81.8 62.737C82.5348 61.287 82.7183 59.6196 82.3161 58.0446C81.914 56.4695 80.9537 55.0941 79.6137 54.1739Z" fill="white"/>
<path d="M24.9727 79.4526C24.9795 80.8639 25.3908 82.2437 26.1578 83.4284C26.9248 84.6131 28.0153 85.5531 29.3002 86.137C30.1988 86.5583 31.1719 86.7974 32.1635 86.8405C33.155 86.8836 34.1452 86.7299 35.077 86.3883L39.5527 84.7589L24.9727 79.4526Z" fill="white"/>
<path d="M74.0521 64.1582C73.7132 63.2254 73.1938 62.3686 72.5235 61.6368C71.8532 60.905 71.0453 60.3124 70.1459 59.8931C69.2464 59.4738 68.2731 59.2359 67.2817 59.193C66.2902 59.1501 65.3 59.3031 64.3677 59.6432L50.5171 64.6832L61.4427 68.6582C64.2473 69.6787 66.5334 71.7687 67.8008 74.4707L69.5352 73.8388C71.4159 73.1514 72.9474 71.7465 73.7941 69.9319C74.6408 68.1173 74.7336 66.041 74.0521 64.1582Z" fill="white"/>
<path d="M57.5807 86.8457C56.698 86.8452 55.8222 86.6897 54.9932 86.3863L20.5345 73.8463C19.6021 73.507 18.7457 72.9874 18.0142 72.3171C17.2827 71.6469 16.6903 70.8391 16.271 69.9399C15.8516 69.0407 15.6135 68.0677 15.5702 67.0765C15.5269 66.0853 15.6792 65.0952 16.0185 64.1629C16.3578 63.2305 16.8774 62.3742 17.5477 61.6426C18.218 60.9111 19.0258 60.3187 19.925 59.8994C20.8241 59.4801 21.7971 59.2419 22.7883 59.1986C23.7796 59.1553 24.7696 59.3076 25.702 59.6469L60.1607 72.1869C61.8268 72.7972 63.2251 73.974 64.1109 75.5114C64.9968 77.0487 65.3136 78.8487 65.0061 80.5962C64.6985 82.3436 63.7861 83.9272 62.4286 85.0698C61.0711 86.2123 59.355 86.841 57.5807 86.8457Z" fill="white"/>
</svg>
