<svg width="25" height="25" viewBox="0 0 25 25" fill="none" xmlns="http://www.w3.org/2000/svg">
<g clip-path="url(#clip0_4010_479)">
<path fill-rule="evenodd" clip-rule="evenodd" d="M8.63737 12.3845C7.49186 10.6604 4.94983 9.74566 2.77418 10.8703C1.30055 11.6315 0.375336 13.1509 0.374756 14.8088C0.374756 16.2268 3.34635 16.8233 5.84954 16.6001C6.11389 14.9196 7.09012 13.0929 8.63737 12.3845Z" fill="white"/>
<path fill-rule="evenodd" clip-rule="evenodd" d="M4.80895 9.19435C5.94112 9.19435 6.8588 8.27666 6.8588 7.14507C6.85938 6.0129 5.9417 5.09521 4.80953 5.09521C4.24373 5.09521 3.73127 5.32478 3.36025 5.69521C2.98982 6.06623 2.76025 6.57811 2.76025 7.14449C2.76025 8.27608 3.67736 9.19377 4.80895 9.19435Z" fill="white"/>
<path fill-rule="evenodd" clip-rule="evenodd" d="M12.2369 10.4206C13.6821 10.4212 14.8537 9.24962 14.8543 7.8044C14.8543 6.35919 13.6827 5.18701 12.2375 5.18701C11.5146 5.18701 10.8607 5.47977 10.3871 5.95339C9.91345 6.42701 9.62012 7.08092 9.62012 7.80324C9.62012 9.24904 10.7917 10.4206 12.2369 10.4206Z" fill="white"/>
<path fill-rule="evenodd" clip-rule="evenodd" d="M19.9567 9.19435C21.0883 9.19435 22.006 8.27666 22.006 7.14507C22.006 6.0129 21.0889 5.09521 19.9573 5.09521H19.9567C18.8252 5.09521 17.9075 6.01232 17.9075 7.14449C17.9069 8.27608 18.8246 9.19377 19.9567 9.19435Z" fill="white"/>
<path fill-rule="evenodd" clip-rule="evenodd" d="M16.1938 17.1004C16.1938 16.3375 16.8101 15.7167 17.5718 15.7097C16.7938 13.5219 14.708 11.9543 12.2547 11.9468C9.12775 11.937 6.58514 14.4633 6.57471 17.5909C6.57471 20.381 15.5956 20.6813 17.5341 18.4906C16.7898 18.4639 16.1938 17.85 16.1938 17.1004Z" fill="white"/>
<path fill-rule="evenodd" clip-rule="evenodd" d="M19.9556 10.3745C18.2832 10.3751 16.9695 11.0278 16.2153 12.5206C17.344 13.2307 18.1713 14.3612 18.5892 15.6319V14.7044C18.5892 13.9374 19.2136 13.3131 19.9806 13.3131C20.7475 13.3131 21.3719 13.9374 21.3719 14.7044V15.709H22.3765C22.7324 15.709 23.0577 15.8435 23.304 16.0644C23.9666 15.7623 24.391 15.3444 24.391 14.8087C24.391 12.3594 22.4049 10.3745 19.9556 10.3745Z" fill="white"/>
<path fill-rule="evenodd" clip-rule="evenodd" d="M22.3765 16.6943H20.3864V14.7041C20.3864 14.4804 20.205 14.2983 19.9806 14.2983C19.7563 14.2983 19.5748 14.4804 19.5748 14.7041V16.6943H17.5852C17.3609 16.6943 17.1794 16.8757 17.1794 17.1001C17.1794 17.3244 17.3609 17.5059 17.5852 17.5059H19.5748V19.4954C19.5748 19.7198 19.7563 19.9012 19.9806 19.9012C20.205 19.9012 20.3864 19.7198 20.3864 19.4954V17.5059H22.3765C22.6003 17.5059 22.7823 17.3238 22.7823 17.1001C22.7823 16.8763 22.6003 16.6943 22.3765 16.6943Z" fill="white"/>
</g>
<defs>
<clipPath id="clip0_4010_479">
<rect width="24" height="24" fill="white" transform="translate(0.374756 0.921875)"/>
</clipPath>
</defs>
</svg>
