<svg width="81" height="81" viewBox="0 0 81 81" fill="none" xmlns="http://www.w3.org/2000/svg">
<g clip-path="url(#clip0_4042_3)">
<path fill-rule="evenodd" clip-rule="evenodd" d="M24.4068 30.1967H16.7697C14.9957 30.1967 13.5577 31.635 13.5577 33.4091V39.7397C13.5577 40.6475 12.8205 41.3847 11.9126 41.3847C11.0046 41.3847 10.2676 40.6475 10.2676 39.7397V33.4091C10.2676 29.8179 13.1786 26.9067 16.77 26.9067H26.2104C25.4941 27.9268 24.8873 29.029 24.4068 30.1967ZM54.0399 26.9067H63.4794C67.0708 26.9067 69.9818 29.8179 69.9818 33.4091V39.7397C69.9818 40.6475 69.2448 41.3847 68.3368 41.3847C67.429 41.3847 66.6917 40.6475 66.6917 39.7397V33.4091C66.6917 31.635 65.2537 30.1967 63.4794 30.1967H55.8429C55.3625 29.029 54.7557 27.9268 54.0399 26.9067ZM33.7929 12.9759C33.7929 9.4795 36.6273 6.64508 40.1256 6.64508C43.6221 6.64508 46.4565 9.4795 46.4565 12.9759C46.4565 16.4742 43.6221 19.3087 40.1256 19.3087C36.6273 19.3087 33.7929 16.4742 33.7929 12.9759ZM53.8242 36.6571C53.8242 44.2229 26.4252 44.2229 26.4252 36.6571C26.4252 29.0915 32.5601 22.9567 40.1256 22.9567C47.6914 22.9567 53.8242 29.0915 53.8242 36.6571Z" fill="white"/>
<path fill-rule="evenodd" clip-rule="evenodd" d="M6.62181 49.747C6.62181 46.8256 8.99021 44.4572 11.9132 44.4572C14.8346 44.4572 17.2032 46.8256 17.2032 49.747C17.2032 52.6702 14.8346 55.0386 11.9132 55.0386C8.99021 55.0386 6.62181 52.6702 6.62181 49.747ZM23.3592 69.5345C23.3592 75.8562 0.465576 75.8562 0.465576 69.5345C0.465576 63.2126 5.59154 58.0867 11.9132 58.0867C18.2351 58.0867 23.3592 63.2126 23.3592 69.5345ZM63.046 49.747C63.046 46.8256 65.4146 44.4572 68.3376 44.4572C71.259 44.4572 73.6274 46.8256 73.6274 49.747C73.6274 52.6702 71.259 55.0386 68.3376 55.0386C65.4146 55.0386 63.046 52.6702 63.046 49.747ZM79.7836 69.5345C79.7836 75.8562 56.89 75.8562 56.89 69.5345C56.89 63.2126 62.0159 58.0867 68.3376 58.0867C74.6593 58.0867 79.7836 63.2126 79.7836 69.5345Z" fill="white"/>
</g>
<defs>
<clipPath id="clip0_4042_3">
<rect width="80" height="80" fill="white" transform="translate(0.124756 0.460449)"/>
</clipPath>
</defs>
</svg>
