<svg width="13" height="27" viewBox="0 0 13 27" fill="none" xmlns="http://www.w3.org/2000/svg">
<path d="M5.27057 20.7682C5.27057 20.7682 5.45668 20.7682 5.64278 20.9328H7.13163C8.34132 20.9328 9.55101 21.262 11.8773 23.0724H12.8079C6.48026 16.6537 4.06088 8.83604 3.87477 4.80378C6.2011 15.0901 12.0634 20.0276 12.0634 20.0276C12.0634 20.0276 14.1106 14.2672 11.319 8.83603C8.52742 3.40484 4.24699 1.67673 2.10677 0.524658C1.26929 1.51215 -0.684822 9.49436 0.245708 13.8558C1.17624 18.2995 5.17751 20.8505 5.17751 20.8505L5.27057 20.7682Z" fill="#D7A444"/>
<path d="M2.10684 23.3192C2.10684 23.3192 4.43316 21.4265 6.01507 21.3442C7.59697 21.2619 8.62055 21.0973 11.5982 23.3192C11.226 23.4014 7.78307 24.3889 4.71232 23.8129C6.29422 24.4712 8.24834 24.8827 12.6218 23.566C12.5288 24.4712 10.5747 26.7754 7.87612 26.7754C5.17759 26.7754 2.10684 23.3192 2.10684 23.3192Z" fill="#D7A444"/>
</svg>
