<svg width="14" height="27" viewBox="0 0 14 27" fill="none" xmlns="http://www.w3.org/2000/svg">
<path d="M8.34491 20.7682C8.34491 20.7682 8.1588 20.7682 7.9727 20.9328H6.48385C5.27416 20.9328 4.06447 21.262 1.73814 23.0724H0.807617C7.13522 16.6537 9.5546 8.83604 9.74071 4.80378C7.41438 15.0901 1.55204 20.0276 1.55204 20.0276C1.55204 20.0276 -0.495122 14.2672 2.29647 8.83603C5.08806 3.40484 9.36849 1.67673 11.5087 0.524658C12.3462 1.51215 14.3003 9.49436 13.3698 13.8558C12.4392 18.2995 8.43796 20.8505 8.43796 20.8505L8.34491 20.7682Z" fill="#D7A444"/>
<path d="M11.5086 23.3192C11.5086 23.3192 9.18231 21.4265 7.60041 21.3442C6.01851 21.2619 4.99493 21.0973 2.01723 23.3192C2.38945 23.4014 5.83241 24.3889 8.90316 23.8129C7.32126 24.4712 5.36714 24.8827 0.993652 23.566C1.0867 24.4712 3.04082 26.7754 5.73935 26.7754C8.43789 26.7754 11.5086 23.3192 11.5086 23.3192Z" fill="#D7A444"/>
</svg>
