<svg width="90" height="91" viewBox="0 0 90 91" fill="none" xmlns="http://www.w3.org/2000/svg">
<path d="M18.0323 21.9407C18.7741 22.12 19.5423 22.3749 20.3438 22.7335C22.7063 23.7952 24.7894 25.1645 26.1745 27.0788C26.0989 23.6809 24.4255 20.4712 21.6306 18.4743C21.1577 18.1403 21.0417 17.4829 21.381 17.01C21.7202 16.5372 22.3724 16.4264 22.8452 16.7604C25.9636 18.9876 27.9183 22.4751 28.2364 26.2421C28.9536 25.444 29.8062 24.7567 30.7431 24.1485C31.4901 22.5647 31.6009 21.0196 31.2757 19.5237C30.9171 17.8749 30.0505 16.2594 28.9237 14.7003C25.9847 10.6292 21.7642 10.5553 18.4103 7.53015C17.4751 12.285 16.8862 17.7694 18.0323 21.9407ZM56.5038 35.4495H72.1993L82.6688 14.0833C83.5653 12.2587 83.256 10.5413 82.3349 9.27038C80.4856 6.72331 76.3513 5.91648 74.1628 9.16491L56.5038 35.4495ZM28.2821 35.4495H28.7655C30.8978 32.0868 34.4855 29.8596 38.4774 29.4747C39.0558 29.4202 39.569 29.8438 39.6235 30.4221C39.678 31.0005 39.2544 31.5137 38.6761 31.5682C35.8108 31.8425 33.1759 33.2628 31.3618 35.4495H40.9085C43.5241 32.405 45.4981 27.9014 46.9325 23.695C42.5169 24.6425 38.8202 22.5981 34.2411 24.6512C29.5126 26.7747 26.9128 29.8139 28.2821 35.4495ZM13.0208 35.678C13.2001 35.5339 13.4286 35.4495 13.6729 35.4495H22.3724C20.553 33.2628 17.9181 31.8425 15.0528 31.5682C14.4745 31.5137 14.0509 31.0005 14.1054 30.4221C14.1599 29.8438 14.6731 29.4202 15.2515 29.4747C19.2435 29.8579 22.8347 32.085 24.9634 35.4495H25.4468C26.8179 29.8139 24.2163 26.7747 19.4878 24.6512C14.9087 22.5981 11.212 24.6407 6.79639 23.695C8.27119 28.0192 10.2997 32.6335 13.0208 35.678ZM22.0138 65.5801L35.9005 57.5628C37.7796 56.4764 39.9312 56.2567 41.8806 56.7805C46.0958 57.9073 48.5778 62.2069 47.4511 66.4221C46.9378 68.3259 45.7214 70.0397 43.9179 71.1313H67.1421C72.3435 67.12 76.2106 61.8342 78.4782 55.9333C80.686 50.1835 81.3786 43.8553 80.3222 37.5624H14.5554C12.8749 47.5626 15.6153 57.7825 22.0138 65.5801ZM16.4837 83.1003H25.8159V71.5497H16.4837C13.3091 71.5497 10.7128 74.1512 10.7128 77.3241C10.7128 80.4987 13.3091 83.1003 16.4837 83.1003ZM43.9987 73.2389C44.9198 74.7542 45.3188 76.563 45.0745 78.3858H66.4899V73.2389H43.9987ZM31.9788 69.4368H37.261C38.611 69.4368 39.8872 69.7848 41.0034 70.3878L42.7823 69.3612C44.1271 68.5632 45.0341 67.294 45.4138 65.879C46.2417 62.7905 44.4364 59.6458 41.3374 58.8126C39.9065 58.4294 38.328 58.5876 36.9569 59.3803L28.8692 64.0491L31.9788 69.4368ZM26.8724 69.4368H29.553L27.0464 65.102L19.5317 69.4368H26.8724ZM27.9288 83.1003H37.261C40.469 83.1003 43.0354 80.4635 43.0354 77.3259C43.0354 74.1425 40.4251 71.5514 37.261 71.5514H27.9288V83.1003Z" fill="white"/>
</svg>
