<svg width="90" height="91" viewBox="0 0 90 91" fill="none" xmlns="http://www.w3.org/2000/svg">
<g clip-path="url(#clip0_4148_14091)">
<path d="M24.4028 82.5611L25.9919 85.0525L17.6419 90.3776L5.58789 71.4783L13.9342 66.1532L24.3768 82.52C24.3787 82.5237 24.3805 82.5293 24.3824 82.5332C24.3898 82.5423 24.3953 82.5518 24.4028 82.5611ZM72.906 63.4185L59.3001 72.139C58.9465 73.8068 57.9619 75.2799 56.588 76.1558C55.6896 76.7285 54.6639 77.0187 53.5894 77.0187C52.9193 77.0187 52.2286 76.9064 51.538 76.6781L41.7375 73.4381C41.0412 73.2078 40.6631 72.4554 40.8934 71.7572C41.1237 71.061 41.8742 70.6829 42.5723 70.9131L52.3728 74.1531C53.4266 74.5014 54.3624 74.4208 55.1598 73.9135C56.0171 73.367 56.6311 72.3355 56.7601 71.2257C56.7657 71.1733 56.775 71.1246 56.7882 71.0759C56.8332 69.6085 55.8861 68.2346 54.4821 67.7703L32.9699 60.6538C30.8754 59.9613 28.8633 60.1896 26.9857 61.3352L17.6419 67.0198L25.9412 80.0284L30.5552 77.2226C30.8865 77.0205 31.2926 76.9755 31.6633 77.0973L49.3759 82.9522C51.7549 83.7422 54.1283 83.4426 56.2379 82.0893L76.5353 69.0806C78.0945 68.0811 78.5512 65.9941 77.5536 64.4293C76.5522 62.872 74.4669 62.4171 72.906 63.4185ZM84.887 41.2961C84.887 43.0799 84.1964 44.7514 82.9422 46.0035L72.5857 56.3657L62.2292 46.0035C59.635 43.4093 59.635 39.1846 62.2292 36.5848C63.4795 35.3345 65.153 34.6456 66.9366 34.6456C68.7222 34.6456 70.3956 35.3345 71.646 36.5866C72.1645 37.1051 73.0067 37.1051 73.5252 36.5866C76.1233 33.9924 80.3498 33.9924 82.9439 36.5866C84.1964 37.839 84.887 39.5123 84.887 41.2961ZM78.0495 44.1991C78.0495 43.4635 77.4543 42.8683 76.7206 42.8683H73.9148V40.0644C73.9148 39.3307 73.3196 38.7355 72.5859 38.7355C71.8521 38.7355 71.257 39.3307 71.257 40.0644V42.8683H68.4587C67.723 42.8683 67.1278 43.4635 67.1278 44.1991C67.1278 44.9328 67.723 45.528 68.4587 45.528H71.257V48.3263C71.257 49.06 71.8521 49.6552 72.5859 49.6552C73.3196 49.6552 73.9148 49.06 73.9148 48.3263V45.528H76.7206C77.4543 45.5282 78.0495 44.933 78.0495 44.1991ZM33.8046 58.1308L55.3169 65.2454C57.1774 65.8612 58.5682 67.308 59.1504 69.0769L71.257 61.3165V58.7971L60.3483 47.8828C56.719 44.2534 56.719 38.3424 60.3483 34.7075V34.7055C60.4606 34.5951 60.573 34.4865 60.689 34.3817C59.0045 33.7885 57.2206 33.4777 55.4275 33.4777H43.1562C34.4281 33.4777 27.3268 40.5773 27.3268 49.3054V58.2207C29.3948 57.44 31.6016 57.4008 33.8046 58.1308ZM49.2917 30.818C57.638 30.818 64.4268 24.0291 64.4268 15.6828C64.4268 7.34043 57.638 0.553345 49.2917 0.553345C40.9493 0.553345 34.1622 7.34043 34.1622 15.6828C34.1622 24.0291 40.9493 30.818 49.2917 30.818Z" fill="white"/>
</g>
<defs>
<clipPath id="clip0_4148_14091">
<rect width="90" height="90" fill="white" transform="translate(0 0.703613)"/>
</clipPath>
</defs>
</svg>
