<svg width="21" height="21" viewBox="0 0 21 21" fill="none" xmlns="http://www.w3.org/2000/svg">
<path d="M18.5711 15.2499C18.04 14.7918 14.9252 12.763 14.4075 12.8562C14.1645 12.9005 13.9785 13.1137 13.4809 13.7243C13.2507 14.0248 12.998 14.3063 12.725 14.5662C12.2248 14.4419 11.7406 14.2573 11.2824 14.0162C9.48583 13.1165 8.0344 11.6231 7.16023 9.7749C6.92582 9.30369 6.74634 8.80566 6.6255 8.29115C6.87812 8.01034 7.15179 7.75037 7.44399 7.51365C8.03705 7.00178 8.24486 6.81178 8.288 6.56053C8.37854 6.02678 6.40432 2.82428 5.96075 2.27803C5.77481 2.05178 5.60589 1.8999 5.38957 1.8999C4.76248 1.8999 1.92603 5.5074 1.92603 5.9749C1.92603 6.01303 1.98679 9.76865 6.59816 14.5943C11.2897 19.3374 14.941 19.3999 14.9781 19.3999C15.4326 19.3999 18.9399 16.4824 18.9399 15.8374C18.9399 15.6149 18.7923 15.4412 18.5711 15.2499Z" fill="white"/>
<path d="M14.6868 10.0249H15.9021C15.9007 8.69928 15.3881 7.42837 14.4767 6.49101C13.5654 5.55365 12.3298 5.02639 11.041 5.0249V6.2749C12.0077 6.2759 12.9344 6.6713 13.6179 7.37435C14.3015 8.07739 14.6859 9.03065 14.6868 10.0249Z" fill="white"/>
<path d="M17.725 10.0249H18.9403C18.9379 7.87078 18.1049 5.8056 16.624 4.2824C15.1431 2.7592 13.1353 1.90238 11.041 1.8999V3.1499C12.8131 3.15205 14.512 3.87707 15.765 5.16592C17.0181 6.45476 17.723 8.2022 17.725 10.0249Z" fill="white"/>
</svg>
