<svg width="17" height="17" viewBox="0 0 17 17" fill="none" xmlns="http://www.w3.org/2000/svg">
<path d="M15.0319 4.26238C14.1209 2.6429 12.4002 1.66446 10.5783 1.66446C9.59986 1.66446 9.59986 3.14898 10.5783 3.14898C13.1425 3.18272 14.9307 5.84812 13.9185 8.20987C13.4461 9.32326 12.3327 10.1667 11.1181 10.3354C10.4433 10.4367 6.70108 10.3692 6.02629 10.3692C5.35151 10.3692 4.67672 10.3692 4.03568 10.3692C4.50803 9.89683 5.01412 9.39074 5.48647 8.91839C6.16125 8.24361 5.11533 7.16395 4.44055 7.87248C3.52959 8.78344 2.65237 9.66066 1.74141 10.5716C1.43776 10.8753 1.43776 11.3476 1.74141 11.6175C2.68611 12.5622 3.63081 13.5069 4.50803 14.3841C5.18281 15.0589 6.26247 14.013 5.55394 13.3382C5.08159 12.8659 4.57551 12.3598 4.10316 11.8874H6.06003C7.00473 11.8874 10.9832 11.9549 11.8604 11.7525C15.0656 10.909 16.6514 7.09647 15.0319 4.26238Z" fill="#D7A444"/>
</svg>
