<svg width="19" height="19" viewBox="0 0 19 19" fill="none" xmlns="http://www.w3.org/2000/svg">
<g clip-path="url(#clip0_4013_657)">
<path d="M17.9455 9.15781L12.6861 3.85625C12.4435 3.61367 12.0498 3.61015 11.8072 3.85273C11.5646 4.09531 11.5611 4.48906 11.8037 4.73164L16.0119 8.975H0.747021C0.40249 8.975 0.124756 9.25273 0.124756 9.59726C0.124756 9.94179 0.40249 10.2195 0.747021 10.2195H16.0119L11.8037 14.4629C11.5611 14.7055 11.5646 15.0992 11.8072 15.3418C12.0498 15.5844 12.4435 15.5809 12.6861 15.3383L17.9455 10.0367C18.1845 9.79414 18.1845 9.40039 17.9455 9.15781Z" fill="#D7A444"/>
</g>
<defs>
<clipPath id="clip0_4013_657">
<rect width="18" height="18" fill="white" transform="translate(0.124756 0.59729)"/>
</clipPath>
</defs>
</svg>
