<svg width="21" height="21" viewBox="0 0 21 21" fill="none" xmlns="http://www.w3.org/2000/svg">
<path d="M18.6841 15.1532C18.153 14.6951 15.0383 12.6663 14.5206 12.7595C14.2775 12.8038 14.0916 13.017 13.5939 13.6276C13.3638 13.9282 13.111 14.2096 12.838 14.4695C12.3378 14.3452 11.8536 14.1606 11.3955 13.9195C9.59887 13.0198 8.14743 11.5264 7.27326 9.67822C7.03886 9.20701 6.85938 8.70898 6.73854 8.19447C6.99115 7.91366 7.26483 7.65369 7.55703 7.41697C8.15009 6.9051 8.3579 6.7151 8.40104 6.46385C8.49158 5.9301 6.51736 2.7276 6.07378 2.18135C5.88785 1.9551 5.71892 1.80322 5.5026 1.80322C4.87552 1.80322 2.03906 5.41072 2.03906 5.87822C2.03906 5.91635 2.09983 9.67197 6.7112 14.4976C11.4028 19.2407 15.0541 19.3032 15.0911 19.3032C15.5457 19.3032 19.053 16.3857 19.053 15.7407C19.053 15.5182 18.9053 15.3445 18.6841 15.1532Z" fill="#D7A444"/>
<path d="M14.8001 9.92822H16.0154C16.014 8.6026 15.5013 7.33169 14.59 6.39433C13.6787 5.45697 12.4431 4.92971 11.1543 4.92822V6.17822C12.1209 6.17922 13.0477 6.57462 13.7312 7.27767C14.4147 7.98071 14.7992 8.93397 14.8001 9.92822Z" fill="#D7A444"/>
<path d="M17.8383 9.92822H19.0536C19.0512 7.7741 18.2182 5.70892 16.7373 4.18572C15.2564 2.66252 13.2486 1.8057 11.1543 1.80322V3.05322C12.9264 3.05537 14.6253 3.78039 15.8783 5.06924C17.1314 6.35809 17.8362 8.10552 17.8383 9.92822Z" fill="#D7A444"/>
</svg>
