<svg width="21" height="21" viewBox="0 0 21 21" fill="none" xmlns="http://www.w3.org/2000/svg">
<g clip-path="url(#clip0_4054_8)">
<path d="M17.5323 5.59976C17.5323 4.53544 16.9894 3.59254 16.168 3.0425C15.6751 2.7068 15.0822 2.51392 14.4465 2.51392H13.6821V4.39257C13.6821 4.78543 13.3678 5.10688 12.9678 5.10688C12.575 5.10688 12.2535 4.78543 12.2535 4.39257V2.51392H5.989V4.39257C5.989 4.78543 5.66755 5.10688 5.27469 5.10688C4.87467 5.10688 4.56037 4.78543 4.56037 4.39257V2.51392H3.79605C2.94601 2.51392 2.17454 2.85682 1.6174 3.42111C1.05306 3.97825 0.710205 4.74973 0.710205 5.59976V6.07123H17.5323V5.59976Z" fill="#D7A444"/>
<path d="M3.79605 18.1787H10.2177C9.67485 17.243 9.36055 16.1501 9.36055 14.9858C9.36055 11.457 12.225 8.59264 15.7465 8.59264C16.368 8.59264 16.968 8.67835 17.5323 8.84263V7.49976H0.710205V15.1C0.710205 16.8001 2.09598 18.1787 3.79605 18.1787Z" fill="#D7A444"/>
<path d="M5.98942 2.071C5.98942 1.67814 5.66797 1.35669 5.27511 1.35669C4.87509 1.35669 4.56079 1.67814 4.56079 2.071V2.51388H5.98942V2.071Z" fill="#D7A444"/>
<path d="M13.682 2.071C13.682 1.67814 13.3677 1.35669 12.9677 1.35669C12.5749 1.35669 12.2534 1.67814 12.2534 2.071V2.51388H13.682V2.071Z" fill="#D7A444"/>
<path d="M15.7462 10.0215C13.0103 10.0215 10.7888 12.2501 10.7888 14.986C10.7888 17.7218 13.0103 19.9433 15.7462 19.9433C18.482 19.9433 20.7107 17.7218 20.7107 14.986C20.7107 12.2501 18.482 10.0215 15.7462 10.0215ZM17.1534 15.7003H15.7462C15.3533 15.7003 15.0319 15.3788 15.0319 14.986V13.5145C15.0319 13.1216 15.3533 12.8002 15.7462 12.8002C16.1462 12.8002 16.4605 13.1216 16.4605 13.5145V14.2717H17.1534C17.5463 14.2717 17.8677 14.586 17.8677 14.986C17.8677 15.3788 17.5463 15.7003 17.1534 15.7003Z" fill="#D7A444"/>
</g>
<defs>
<clipPath id="clip0_4054_8">
<rect width="20" height="20" fill="white" transform="translate(0.710693 0.649902)"/>
</clipPath>
</defs>
</svg>
