<svg width="17" height="17" viewBox="0 0 17 17" fill="none" xmlns="http://www.w3.org/2000/svg">
<g clip-path="url(#clip0_4010_637)">
<path fill-rule="evenodd" clip-rule="evenodd" d="M1.24976 5.37305C2.16376 3.28405 4.00176 1.69055 6.24626 1.11055C5.61626 2.05505 5.11076 3.56055 4.84076 5.37305H1.24976ZM10.0033 1.11055C12.2478 1.69055 14.0858 3.28405 14.9998 5.37305H11.4088C11.1388 3.56055 10.6333 2.05505 10.0033 1.11055ZM15.3548 6.37305C15.5308 7.01005 15.6248 7.68055 15.6248 8.37305C15.6248 9.06555 15.5308 9.73605 15.3548 10.373H11.5308C11.5923 9.73255 11.6248 9.06255 11.6248 8.37305C11.6248 7.68355 11.5923 7.01355 11.5308 6.37305H15.3548ZM14.9998 11.373C14.0858 13.462 12.2478 15.0555 10.0033 15.6355C10.6333 14.691 11.1388 13.1855 11.4088 11.373H14.9998ZM6.24626 15.6355C4.00176 15.0555 2.16376 13.462 1.24976 11.373H4.84076C5.11076 13.1855 5.61626 14.691 6.24626 15.6355ZM0.89476 10.373C0.71876 9.73605 0.624756 9.06555 0.624756 8.37305C0.624756 7.68055 0.71876 7.01005 0.89476 6.37305H4.71875C4.65725 7.01355 4.62476 7.68355 4.62476 8.37305C4.62476 9.06255 4.65725 9.73255 4.71875 10.373H0.89476ZM8.12476 0.873047C8.34226 0.873047 8.54475 0.981045 8.74025 1.15504C8.99925 1.38504 9.23526 1.72355 9.45076 2.14505C9.87026 2.96505 10.1997 4.07905 10.4017 5.37305H5.84776C6.04976 4.07905 6.37925 2.96505 6.79875 2.14505C7.01425 1.72355 7.25026 1.38504 7.50926 1.15504C7.70476 0.981045 7.90726 0.873047 8.12476 0.873047ZM10.5283 10.373H5.72125C5.65825 9.73505 5.62476 9.06455 5.62476 8.37305C5.62476 7.68155 5.65825 7.01105 5.72125 6.37305H10.5283C10.5913 7.01105 10.6248 7.68155 10.6248 8.37305C10.6248 9.06455 10.5913 9.73505 10.5283 10.373ZM8.12476 15.873C7.90726 15.873 7.70476 15.765 7.50926 15.591C7.25026 15.361 7.01425 15.0225 6.79875 14.601C6.37925 13.781 6.04976 12.667 5.84776 11.373H10.4017C10.1997 12.667 9.87026 13.781 9.45076 14.601C9.23526 15.0225 8.99925 15.361 8.74025 15.591C8.54475 15.765 8.34226 15.873 8.12476 15.873Z" fill="#D7A444"/>
</g>
<defs>
<clipPath id="clip0_4010_637">
<rect width="16" height="16" fill="white" transform="translate(0.124756 0.373047)"/>
</clipPath>
</defs>
</svg>
